<?xml version="1.0" encoding="UTF-8"?>
<svg id="rainbow" xmlns="http://www.w3.org/2000/svg" viewBox="0 0 647.67 826.84">
  <defs>
    <style>
      .cls-1 {
        fill: #009444;
      }

      .cls-1, .cls-2, .cls-3 {
        stroke: #231f20;
        stroke-miterlimit: 10;
        stroke-width: 5px;
      }

      .cls-2 {
        fill: #fff200;
      }

      .cls-3 {
        fill: #ed1c24;
      }
    </style>
  </defs>
  <path class="cls-3" d="M582.19,400.32c2.63-21.46,5.28-42.91,7.94-64.35-77.79-91.48-183.96-145.32-290.13-144.62-106.17-.7-212.33,53.14-290.13,144.62,2.66,21.44,5.31,42.89,7.94,64.35,75.82-89,179-141.24,282.19-140.57,103.18-.67,206.37,51.57,282.19,140.57Z"/>
  <path class="cls-2" d="M582.19,491.26c2.63-21.46,5.28-42.91,7.94-64.35-77.79-91.48-183.96-145.32-290.13-144.62-106.17-.7-212.33,53.14-290.13,144.62,2.66,21.44,5.31,42.89,7.94,64.35,75.82-89,179-141.24,282.19-140.57,103.18-.67,206.37,51.57,282.19,140.57Z"/>
  <path class="cls-1" d="M582.19,582.43c2.63-21.46,5.28-42.91,7.94-64.35-77.79-91.48-183.96-145.32-290.13-144.62-106.17-.7-212.33,53.14-290.13,144.62,2.66,21.44,5.31,42.89,7.94,64.35,75.82-89,179-141.24,282.19-140.57,103.18-.67,206.37,51.57,282.19,140.57Z"/>
</svg>