<?xml version="1.0" encoding="UTF-8"?>
<svg id="Layer_1" data-name="Layer 1" xmlns="http://www.w3.org/2000/svg" version="1.1" viewBox="0 0 1080 1080">
  <defs>
    <style>
      .cls-1 {
        stroke-width: 0px;
      }

      .cls-1, .cls-2 {
        fill: #fff200;
      }

      .cls-3 {
        stroke-width: 30px;
      }

      .cls-3, .cls-2, .cls-4, .cls-5, .cls-6, .cls-7 {
        stroke: #231f20;
        stroke-miterlimit: 10;
      }

      .cls-3, .cls-7 {
        fill: none;
      }

      .cls-2, .cls-5, .cls-6, .cls-7 {
        stroke-width: 25px;
      }

      .cls-4 {
        fill: #ed1c24;
        stroke-width: 20px;
      }

      .cls-5 {
        fill: #009444;
      }

      .cls-6 {
        fill: #00a651;
      }
    </style>
  </defs>
  <path class="cls-5" d="M546.31,913.05c-4.34.15-8.7.23-13.09.23-106.32,0-201.84-44.23-267.58-114.53-26.05-27.84-47.42-59.78-62.93-94.66-18.39-41.33-28.56-86.81-28.56-134.56,0-29.58,3.9-58.28,11.24-85.67l-8.79,7.74L104.29,154.67l296.64,95.18c40.94-15.54,85.57-24.08,132.29-24.08l13.09,687.28Z"/>
  <path class="cls-5" d="M884.77,481.03c7.84,28.23,12.02,57.9,12.02,88.49,0,45.65-9.3,89.23-26.19,129.08-14.64,34.59-35,66.39-59.97,94.31-63.2,70.71-155.87,116.57-259.81,120.14l-13.09-687.28c47.13,0,92.15,8.69,133.38,24.5l297.98-95.6-72.31,336.92-12.01-10.56Z"/>
  <path class="cls-2" d="M272.36,805.28"/>
  <line class="cls-2" x1="121.27" y1="908.09" x2="548.42" y2="617.45"/>
  <path class="cls-3" d="M539.77,544.46"/>
  <path class="cls-3" d="M780.81,829.47"/>
  <line class="cls-7" x1="63.37" y1="767.98" x2="202.71" y2="704.09"/>
  <line class="cls-6" x1="961.88" y1="899.05" x2="544.94" y2="620.64"/>
  <line class="cls-7" x1="1005.07" y1="767.98" x2="865.73" y2="704.09"/>
  <path class="cls-3" d="M501.84,588.66"/>
  <path class="cls-3" d="M500.53,387.75"/>
  <line class="cls-3" x1="342.05" y1="395.35" x2="343.35" y2="596.27"/>
  <line class="cls-3" x1="740.81" y1="397.14" x2="742.11" y2="598.06"/>
  <path class="cls-1" d="M555.55,644.72l7.09,254.21s127.56-.18,228.31-101.32"/>
  <path class="cls-1" d="M529.85,641.35l3.29,260.15s-124.08,12.25-242.97-95.41"/>
  <polygon class="cls-4" points="543.49 736.03 456.88 606.36 630.11 606.36 543.49 736.03"/>
</svg>